# xmcd
#
# Track frame offsets: 
#        150
#        21310
#        42935
#        67675
#        92202
#        119050
#        139007
#        167030
#        184107
#
# Disc length: 2908 seconds
#
# Revision: 4
# Processed by: cddbd v1.5.2PL0 Copyright (c) Steve Scherf et al.
# Submitted via: ExactAudioCopy v0.95b4
#
DISCID=770b5909,790b5a09,7a0b5909
DTITLE=Robben Ford and The Blue Line - Robben Ford and The Blue Line
DYEAR=1992
DGENRE=Blues
TTITLE0=The Brother (for Jimmie and Stevie)
TTITLE1=You Cut Me To The Bone
TTITLE2=I'm A Real Man
TTITLE3=My Love Will Never Die
TTITLE4=Step On It
TTITLE5=Prison Of Love
TTITLE6=Tell Me I'm Your Man
TTITLE7=Start It Up
TTITLE8=Life Song (one for Annie)
EXTD=Musicians:\n\nRobben Ford\tGuitar and Vocals\nTom Brechtlein\tDrums
EXTD=and Clean Sneakers\nRoscoe Beck\tElectric and Acoustic Bass\n\nGRS 1
EXTD=1022 YEAR: 1992
EXTT0=
EXTT1=
EXTT2=
EXTT3=
EXTT4=
EXTT5=
EXTT6=
EXTT7=
EXTT8=
PLAYORDER=
